<svg version="1.0" xmlns="http://www.w3.org/2000/svg"
 width="400" height="400" viewBox="0, 0, 400,400"
 preserveAspectRatio="xMidYMid meet">
<g transform="translate(0.000000,400.000000) scale(0.100000,-0.100000)"
fill="#000000" stroke="none">
<path d="M1712 3984 c-107 -28 -211 -118 -261 -223 l-26 -56 0 -1705 0 -1705
26 -56 c68 -144 217 -239 375 -239 67 0 170 32 220 68 47 35 1775 1608 1823
1660 18 20 48 66 65 102 29 60 31 73 31 170 0 97 -2 110 -31 170 -18 36 -45
79 -60 97 -53 58 -1798 1645 -1839 1671 -90 58 -214 76 -323 46z"/>
</g>
</svg>
